<?xml version="1.0" encoding="UTF-8"?>
<svg id="a" data-name="ico" xmlns="http://www.w3.org/2000/svg" viewBox="0 0 256 256">
  <defs>
    <style>
      .b {
        fill: #fff;
      }

      .c {
        fill: #007f7b;
      }
    </style>
  </defs>
  <circle class="c" cx="127.8718829" cy="127.8718829" r="127.8718829"/>
  <g>
    <g>
      <path class="b" d="M127.8603516,206.5996094c-12.7617188,0-25.4882812-3.1855469-36.8051758-9.2109375-34.203125-18.2109375-50.1435547-59.4199219-37.0791016-95.8564453,1.2363281-3.4458008,2.7163086-6.8198242,4.4018555-10.0351562l-10.1533203-5.4052734c-.1577148-.0839844-.2587891-.2456055-.2646484-.4243164-.0063477-.1787109.0834961-.3466797.2348633-.4414062l40.7661133-25.4345703c.081543-.0517578.1743164-.0776367.2675781-.0776367.0800781,0,.1601562.019043.2333984.0576172.1586914.0839844.2602539.2460938.2661133.425293l1.003418,29.1235352.6396484,18.894043c.0063477.1787109-.0834961.3466797-.2348633.4414062-.0805664.050293-.1728516.0756836-.2646484.0756836-.0805664,0-.1611328-.0195312-.2348633-.0585938l-10.1367188-5.3969727c-1.6875,3.2412109-3.0327148,6.6181641-4.0014648,10.0458984-6.8852539,24.1040039,4.1904297,50.1547852,26.3349609,61.9448242,7.7109375,4.1054688,16.3803711,6.2753906,25.0722656,6.2753906,9.284668,0,18.4663086-2.4248047,26.5512695-7.0126953.0771484-.0439453.1621094-.0654297.2470703-.0654297.0839844,0,.1679688.0214844.2441406.0634766.1523438.0859375.2490234.2441406.2558594.4189453l.734375,21.2119141.1582031,4.8554688c.0068359.2138672-.1230469.4091797-.3232422.484375-8.9707031,3.3847656-18.3613281,5.1015625-27.9130859,5.1015625Z"/>
      <path class="b" d="M89.228653,60.2140579l1.0032272,29.1231689.6396027,18.8944397-10.5797501-5.6330032c-1.8305206,3.4380188-3.2531662,6.9740448-4.2742081,10.5875626-6.8434753,23.9571304,3.7092285,50.3444748,26.5810242,62.5221939,8.0710678,4.297287,16.750061,6.3341064,25.3075104,6.3341064,9.4014664,0,18.6562576-2.4583282,26.7976151-7.0784302l.7349396,21.2112122.1582947,4.8547668c-8.8275909,3.3309784-18.2332611,5.0690308-27.7370071,5.0690308-12.3716812,0-24.9107742-2.9440155-36.5697479-9.1516266-34.619709-18.432663-49.7038994-59.3805084-36.8435631-95.246315,1.2678947-3.5332489,2.7967262-7.0126495,4.60606-10.4108963l-10.5929565-5.6400452,35.6411896-22.2372246,5.0252228-3.1342506.1025467-.0646896M89.2286911,59.2140656c-.1857605,0-.3710327.0516815-.5335846.1542244l-.1025391.0646858-5.0208969,3.1315193-35.6413116,22.2373161c-.3031235.1891251-.4823341.5256195-.4700813.8826828.012249.3570862.2140808.6805038.529438.8484192l9.7159576,5.1730957c-1.6011658,3.1026306-3.0122337,6.3465805-4.2003136,9.657402-6.3417091,17.6861877-6.1202087,37.1671677.6236038,54.8546066,6.8105431,17.8624115,19.8410606,32.640564,36.6912117,41.6121521,11.3888931,6.0637817,24.1970215,9.2689362,37.0397263,9.2689362,9.6120377,0,19.0628891-1.7271271,28.0900345-5.1334229.4004822-.1511078.6603851-.5403748.6464386-.9681854l-.1582794-4.8547668-.7350311-21.2132568c-.0121002-.3495636-.2059479-.6673737-.5112305-.8381195-.1516724-.0848541-.3199463-.127243-.4881287-.1272583-.1703033,0-.3405304.0434418-.493576.1302948-8.009964,4.5455017-17.1057434,6.9481201-26.3040619,6.9481201-8.6102295,0-17.1989136-2.1497192-24.8375626-6.2167816-21.937767-11.6804047-32.9099808-37.4880524-26.0894394-61.3648376.9156876-3.2406845,2.1698456-6.4327698,3.7335434-9.5052261l9.6888962,5.1586838c.1471939.0783691.3087463.1173096.4699326.1173096.1840744,0,.3676987-.0507431.529274-.1515198.3030624-.1890182.4822922-.5253296.4702148-.882309l-.6396103-18.8944397-1.0032501-29.1237679c-.0123291-.3578949-.2151031-.6818771-.5316238-.8493958-.1466522-.0776176-.3073883-.1161613-.4677505-.1161613h0Z"/>
    </g>
    <g>
      <path class="b" d="M166.7714844,196.2861328c-.0800781,0-.1611328-.0195312-.234375-.0585938-.1582031-.0830078-.2587891-.2451172-.265625-.4238281l-1.0029297-29.1230469-.6396484-18.8955078c-.0058594-.1777344.0839844-.3466797.2353516-.4404297.0810547-.0507812.1728516-.0761719.2646484-.0761719.0810547,0,.1611328.0195312.2353516.0585938l10.1357422,5.3964844c1.6875-3.2392578,3.0332031-6.6162109,4.0009766-10.0449219,6.8857422-24.1035156-4.1894531-50.1547852-26.3349609-61.9453125-7.7109375-4.1064453-16.3828125-6.2763672-25.0776367-6.2763672-9.2773438,0-18.4541016,2.4208984-26.5385742,7.0009766-.0766602.043457-.1616211.0649414-.246582.0649414-.0839844,0-.168457-.0209961-.2441406-.0634766-.152832-.0854492-.2495117-.2446289-.2553711-.4194336l-.8999023-26.0527344c-.0073242-.2143555.1225586-.4091797.3227539-.4848633,8.9707031-3.3852539,18.3618164-5.1015625,27.9135742-5.1015625,12.7612305,0,25.487793,3.1850586,36.8051758,9.2104492,34.203125,18.2114258,50.1435547,59.4204102,37.0791016,95.8564453-1.2382812,3.4492188-2.71875,6.8232422-4.4023438,10.0351562l10.1533203,5.4052734c.1572266.0839844.2578125.2460938.2646484.4238281.0058594.1787109-.0839844.3476562-.2353516.4414062l-40.7675781,25.4355469c-.0810547.0517578-.1728516.0771484-.265625.0771484Z"/>
      <path class="b" d="M128.1401062,49.9010925c12.3716736-.0002785,24.9107819,2.9440422,36.5697632,9.1516685,34.6197052,18.4326668,49.7039185,59.380497,36.8435516,95.2463112-1.2678223,3.5331726-2.7967072,7.0126495-4.6060638,10.4108887l10.5929718,5.6400452-35.6411896,22.2372284-5.0251923,3.1341705-.1025391.0646667-1.0032806-29.1230774-.6396027-18.8944244,10.5797729,5.6329956c1.8305664-3.4380951,3.2531433-6.9740295,4.2741852-10.5875702,6.8434906-23.9571075-3.709198-50.3444672-26.5810089-62.522171-8.0699158-4.2966766-16.7524719-6.3345947-25.3132629-6.335022-9.393631-.0004578-18.6411972,2.4522934-26.7847443,7.0659561l-.7349777-21.2111244-.1653748-4.8414764c8.8275986-3.3310089,18.2332535-5.0688515,27.7369919-5.0690651M128.1417999,48.9010925v1l-.0006409-1h-.0010834c-9.6125259.0002098-19.0633774,1.727356-28.090004,5.1334572-.4010239.1513138-.6610031.541378-.6463776.9697533l.1653748,4.8414764.7350006,21.2116089c.0121078.3494339.2058334.66716.5109177.8379364.1517639.0849533.3201675.1274338.4884949.1274338.1700592,0,.3400421-.0433197.4929199-.1299362,8.0100479-4.5380173,17.1015854-6.9364777,26.2917786-6.9360199,8.613678.0004349,17.2043762,2.1504745,24.8433228,6.2177048,21.9377747,11.680397,32.9099884,37.4880219,26.089447,61.3648148-.9157104,3.2407227-2.1698456,6.4328308-3.7335205,9.505249l-9.6889343-5.1586914c-.1471863-.0783539-.3087311-.1172943-.4699249-.1173096-.1840668,0-.367691.0507507-.5292664.1515198-.3030701.1890259-.4822998.5253296-.4702148.882309l.6396027,18.8944244,1.0032959,29.1236877c.0123291.3578796.2150879.681839.5315704.8493805.1466675.0776367.3074036.1161804.467804.1161804.1856995,0,.3709564-.0516663.5334625-.1541443l.1025391-.0646667,5.0209808-3.1315155,35.6413116-22.2373199c.3031311-.1891174.4823303-.5256195.4700775-.8826904-.0122375-.3570862-.2140808-.6804962-.5294342-.8484192l-9.7159424-5.1730804c1.6012115-3.1027069,3.0122833-6.3466644,4.2003021-9.6574097,6.3417053-17.6861877,6.1202087-37.1671677-.6236115-54.8546066-6.8105316-17.8624191-19.8410645-32.640564-36.6912079-41.6121483-11.3888855-6.0638123-24.1964417-9.2689781-37.0380402-9.2689781h0Z"/>
    </g>
  </g>
</svg>